PathFileType	4	(X/Y/Z)	C:/Users/opensim2020/Desktop/walking_exp_matlab/subject03_walking05_straight_04.trc	
DataRate	CameraRate	NumFrames	NumMarkers	Units	OrigDataRate	OrigDataStartFrame	OrigNumFrames	
100.00	100.00	5	45	mm	100.00	3112	294	
Frame#	Time	LFHD			RFHD			LBHD			RBHD			C7			T10			CLAV			STRN			RBAK			LSHO			LUPA			LELB			LFRM			LWRA			LWRB			LFIN			RSHO			RUPA			RELB			RFRM			RWRA			RWRB			RFIN			LASI			RASI			LPSI			RPSI			LTHI			LKNE			LTIB			LANK			LHEE			LTOE			RTHI			RKNE			RTIB			RANK			RHEE			RTOE			*39			*40			*41			*42			*43			*44			
		X1	Y1	Z1	X2	Y2	Z2	X3	Y3	Z3	X4	Y4	Z4	X5	Y5	Z5	X6	Y6	Z6	X7	Y7	Z7	X8	Y8	Z8	X9	Y9	Z9	X10	Y10	Z10	X11	Y11	Z11	X12	Y12	Z12	X13	Y13	Z13	X14	Y14	Z14	X15	Y15	Z15	X16	Y16	Z16	X17	Y17	Z17	X18	Y18	Z18	X19	Y19	Z19	X20	Y20	Z20	X21	Y21	Z21	X22	Y22	Z22	X23	Y23	Z23	X24	Y24	Z24	X25	Y25	Z25	X26	Y26	Z26	X27	Y27	Z27	X28	Y28	Z28	X29	Y29	Z29	X30	Y30	Z30	X31	Y31	Z31	X32	Y32	Z32	X33	Y33	Z33	X34	Y34	Z34	X35	Y35	Z35	X36	Y36	Z36	X37	Y37	Z37	X38	Y38	Z38	X39	Y39	Z39	X40	Y40	Z40	X41	Y41	Z41	X42	Y42	Z42	X43	Y43	Z43	X44	Y44	Z44	X45	Y45	Z45	

258	2.570	1512.90454	-905.51123	1611.86768	1380.81018	-887.81732	1618.96533	1526.28857	-772.08496	1590.92419	1396.12634	-759.19025	1596.70593	1467.48413	-717.88965	1424.07312	1463.87317	-691.51117	1105.76343	1459.71741	-838.71100	1347.72827	1462.53259	-887.06976	1185.14160	1371.04211	-662.36725	1244.56042	1617.57446	-799.95337	1382.62585	1688.72180	-814.41681	1186.42444	1697.16467	-839.61493	1065.24036	1687.84912	-883.13080	942.71027	1651.48389	-910.20435	828.79297	1706.38623	-900.43854	831.33990	1692.60437	-929.86841	754.26526	1302.40515	-785.85748	1371.23132	1234.00171	-799.53058	1147.41724	1225.32935	-826.42615	1036.98145	1229.64490	-859.08270	904.06445	1271.51086	-898.94482	814.91443	1225.86780	-871.20068	804.29120	1241.34082	-900.41522	736.43213	1578.05103	-867.59363	951.42371	1339.79480	-860.24420	944.96002	1531.30371	-704.22754	972.34729	1382.15063	-699.83899	969.53937	1615.97876	-813.53156	649.09094	1574.76880	-816.30450	471.61578	1577.49060	-764.84570	282.37061	1535.08716	-746.78851	73.21719	1498.83276	-707.40674	38.77279	1515.14954	-901.07465	35.48277	1299.24573	-852.44757	643.73535	1323.37537	-914.69263	474.83401	1325.32666	-787.58423	333.95651	1371.23889	-642.83813	176.55510	1425.32056	-589.29468	175.72400	1382.64502	-727.23724	64.06217	1473.92578	-829.38556	1689.33911															 
259	2.580	1511.97644	-915.14044	1611.37549	1379.88489	-897.17657	1618.09851	1525.75635	-781.63214	1591.14441	1395.71680	-768.32343	1596.58569	1467.36426	-726.52283	1423.87830	1463.71960	-700.32660	1105.51501	1459.82727	-847.30328	1347.54871	1462.90283	-895.70886	1185.04175	1371.12842	-670.70612	1244.50806	1617.49158	-808.21661	1382.82715	1689.25891	-824.51202	1187.25623	1698.00171	-852.24872	1066.69849	1688.45483	-899.16620	945.45642	1651.82788	-929.65558	832.63568	1706.60046	-919.49622	834.65363	1693.12268	-951.97656	759.05719	1302.44421	-794.36102	1371.14258	1233.86133	-806.29443	1147.03052	1224.90784	-832.34344	1036.42908	1229.10352	-863.89319	903.22791	1270.84302	-903.72028	813.89423	1225.44409	-875.50433	803.47675	1240.51099	-904.39331	735.66644	1578.68555	-874.06500	949.98621	1340.22217	-869.64990	944.83002	1530.98193	-712.95996	972.00146	1382.02881	-709.08777	969.23749	1616.14172	-819.59296	648.82025	1575.13635	-820.79810	471.27728	1577.50684	-767.34766	282.50845	1534.18799	-748.44025	72.48635	1498.66626	-707.53052	39.32889	1515.21204	-901.15204	35.44174	1300.34888	-864.85260	645.07483	1324.60657	-930.89246	476.80490	1326.65515	-808.34406	331.43741	1372.59668	-669.37054	168.80272	1426.85339	-615.38916	165.43480	1384.23328	-759.03711	60.94112	1472.72498	-839.29248	1688.51184															 
260	2.590	1511.05286	-924.71167	1610.82080	1378.97534	-906.71869	1617.10400	1525.24622	-791.11401	1591.26917	1395.13538	-777.53070	1596.20129	1467.13770	-735.35632	1423.64941	1463.60864	-709.05286	1105.12805	1459.86963	-855.92267	1347.18457	1463.25403	-904.36536	1184.81335	1371.12695	-679.32172	1244.05383	1617.30713	-816.46088	1382.82874	1689.77112	-834.52905	1187.89063	1698.87524	-864.59998	1068.00745	1689.15271	-914.97559	948.23157	1652.13123	-949.10156	836.59131	1706.79297	-938.40070	838.11676	1693.55811	-973.65649	763.93872	1302.40625	-803.10229	1370.49316	1233.63513	-813.49359	1146.64758	1224.42554	-838.35822	1035.88525	1228.61145	-869.17041	902.42065	1270.08374	-908.24835	812.73181	1224.84363	-879.76184	802.53479	1239.31042	-908.79761	734.85168	1579.15027	-884.04474	950.33563	1340.63257	-878.95477	944.59473	1531.10278	-720.98859	972.00793	1381.90417	-718.11548	968.76398	1615.89697	-825.75262	648.50995	1575.49988	-825.22614	470.91455	1577.53235	-769.85431	282.65460	1534.08667	-748.65601	72.79674	1498.46753	-707.64594	39.75664	1515.29199	-901.19116	35.43351	1300.48462	-878.43439	645.53473	1325.89709	-946.48749	478.39136	1327.79883	-828.62616	328.64236	1374.09705	-696.57141	160.47781	1428.45996	-642.45557	154.47725	1385.74634	-791.92426	57.97523	1471.75818	-849.81537	1688.79053															 
261	2.600	1510.08582	-934.26398	1610.15320	1378.01489	-916.05945	1616.07104	1524.61609	-800.71161	1591.24951	1394.62085	-786.69897	1595.70117	1467.03503	-743.86871	1423.32544	1463.90771	-717.24152	1105.06592	1459.85742	-864.44385	1346.71289	1463.55554	-913.01587	1184.41199	1371.11487	-687.97095	1243.44116	1617.09509	-824.73517	1382.69348	1690.31189	-844.67511	1188.44995	1699.84497	-876.77203	1069.18542	1689.88110	-930.65369	950.97278	1652.33105	-969.69720	841.33087	1706.88818	-957.07019	841.55579	1693.87866	-994.91168	768.78180	1302.32727	-811.49176	1370.06909	1233.31311	-820.67194	1146.01001	1223.92969	-844.48248	1035.08582	1227.95923	-874.40143	901.47052	1268.98657	-913.54230	811.74432	1224.18298	-884.35364	801.55066	1237.87610	-913.29559	733.91479	1579.65210	-892.47858	949.82306	1341.16760	-888.90955	944.69653	1530.72937	-729.73206	971.20740	1381.74475	-727.24817	968.18329	1616.45081	-831.53662	648.01672	1575.88098	-829.69434	470.51727	1577.49475	-772.50616	282.78387	1534.68054	-748.15387	73.74147	1498.23596	-707.70331	40.22097	1515.36499	-901.33038	35.45327	1300.26050	-891.57257	646.18158	1326.82800	-961.63892	480.16483	1328.97461	-849.29944	325.57361	1375.75818	-724.59912	151.91083	1430.20288	-671.13220	142.87871	1387.20044	-825.37506	55.17531	1470.80029	-859.64563	1688.13611															 
262	2.610	1509.08923	-943.73755	1609.41919	1377.06299	-925.35712	1615.03125	1524.10388	-810.05188	1591.09827	1394.07898	-795.75861	1595.23474	1466.77710	-752.46698	1422.87329	1463.81262	-725.89307	1104.52405	1459.75500	-873.10815	1346.17468	1463.80249	-921.64539	1183.86438	1371.11316	-696.75348	1242.60352	1616.81995	-833.06982	1382.42456	1690.74561	-854.81329	1188.85840	1700.84241	-888.81860	1070.25378	1690.89563	-946.82263	954.19275	1652.79761	-987.84570	845.06885	1707.19470	-976.05634	845.33142	1694.20886	-1015.99152	773.81091	1302.12537	-820.06940	1369.30127	1233.04114	-827.97272	1145.28833	1223.35718	-850.71844	1034.19934	1227.19604	-879.72321	900.43512	1267.81079	-918.48663	810.48749	1223.36560	-888.79651	800.42084	1236.37219	-917.94189	732.91791	1580.17224	-900.61066	949.16583	1341.50183	-898.08655	944.27618	1530.34253	-738.29437	970.59656	1381.53601	-736.29852	967.43323	1616.59106	-837.44617	647.60822	1576.15112	-834.20142	470.10391	1577.38135	-775.15405	282.87918	1534.92371	-748.10748	74.42413	1497.76331	-708.79083	39.78984	1515.43347	-901.45416	35.51266	1300.49158	-905.68341	647.36841	1327.61829	-976.14136	481.68649	1329.88293	-870.14941	322.22531	1377.40686	-753.30835	143.17853	1431.95386	-700.38910	131.31770	1388.48511	-859.27887	52.48085	1469.63245	-868.71301	1687.18457															 
